{
	"asset":{
		"generator":"Khronos glTF Blender I/O v4.5.47",
		"version":"2.0"
	},
	"scene":0,
	"scenes":[
		{
			"name":"Scene",
			"nodes":[
				0,
				1,
				2,
				3,
				4,
				5,
				6,
				7,
				8,
				9,
				10
			]
		}
	],
	"nodes":[
		{
			"mesh":0,
			"name":"Cube",
			"scale":[
				24.270444869995117,
				0.60676109790802,
				24.270444869995117
			],
			"translation":[
				0.39018869400024414,
				0.5954465866088867,
				0.19328629970550537
			]
		},
		{
			"mesh":1,
			"name":"Cube.001",
			"rotation":[
				0,
				0,
				-0.7071068286895752,
				0.7071068286895752
			],
			"scale":[
				24.270444869995117,
				0.60676109790802,
				24.270444869995117
			],
			"translation":[
				-24.123563766479492,
				23.99311065673828,
				0.19328629970550537
			]
		},
		{
			"mesh":2,
			"name":"Cube.002",
			"rotation":[
				0.5,
				-0.4999999403953552,
				-0.5,
				0.5000000596046448
			],
			"scale":[
				24.270444869995117,
				0.60676109790802,
				24.270444869995117
			],
			"translation":[
				0.1468815803527832,
				23.99311065673828,
				-24.077157974243164
			]
		},
		{
			"mesh":3,
			"name":"Cube.003",
			"rotation":[
				0.10715916752815247,
				0.5003699064254761,
				-0.20052285492420197,
				0.8354265093803406
			],
			"scale":[
				3.095015287399292,
				3.095015287399292,
				3.095015287399292
			],
			"translation":[
				-9.437189102172852,
				1.167543649673462,
				6.808489799499512
			]
		},
		{
			"mesh":4,
			"name":"Cube.004",
			"rotation":[
				-0.2090359479188919,
				0.2955806851387024,
				-0.278131365776062,
				0.8897072672843933
			],
			"scale":[
				3.095015048980713,
				3.095015287399292,
				3.095015287399292
			],
			"translation":[
				-16.816566467285156,
				1.9798117876052856,
				19.11736297607422
			]
		},
		{
			"mesh":5,
			"name":"Cube.005",
			"rotation":[
				0.1915229856967926,
				0.14719603955745697,
				-0.15989433228969574,
				0.957123875617981
			],
			"scale":[
				3.095015287399292,
				3.095015525817871,
				3.095015287399292
			],
			"translation":[
				1.0073184967041016,
				3.626802682876587,
				13.548134803771973
			]
		},
		{
			"mesh":6,
			"name":"Cube.006",
			"rotation":[
				0.061448946595191956,
				0.16856545209884644,
				0.0973561629652977,
				0.9789441823959351
			],
			"scale":[
				7.66568660736084,
				7.665685653686523,
				7.665685653686523
			],
			"translation":[
				-12.536518096923828,
				3.4061057567596436,
				-11.694645881652832
			]
		},
		{
			"mesh":7,
			"name":"Cube.007",
			"rotation":[
				0.14096993207931519,
				0.15506036579608917,
				-0.08502472937107086,
				0.974091649055481
			],
			"scale":[
				5.34660005569458,
				5.346599102020264,
				5.346599578857422
			],
			"translation":[
				7.6336669921875,
				2.6131465435028076,
				-13.70887565612793
			]
		},
		{
			"mesh":8,
			"name":"Cube.008",
			"rotation":[
				-0.4561793804168701,
				0.2444157898426056,
				0.20485632121562958,
				0.8307798504829407
			],
			"scale":[
				2.7312395572662354,
				2.731238842010498,
				2.731239080429077
			],
			"translation":[
				12.503278732299805,
				0.8362183570861816,
				3.6929054260253906
			]
		},
		{
			"mesh":9,
			"name":"Icosphere",
			"translation":[
				1.0513942241668701,
				3.9614429473876953,
				-1.3281441926956177
			]
		},
		{
			"mesh":10,
			"name":"Plane",
			"scale":[
				120,
				120,
				120
			],
			"translation":[
				1.4238382577896118,
				0.7434806227684021,
				-0.556434690952301
			]
		}
	],
	"materials":[
		{
			"doubleSided":true,
			"name":"Material",
			"pbrMetallicRoughness":{
				"baseColorFactor":[
					0.800000011920929,
					0.800000011920929,
					0.800000011920929,
					1
				],
				"metallicFactor":0,
				"roughnessFactor":0.5
			}
		}
	],
	"meshes":[
		{
			"name":"Cube",
			"primitives":[
				{
					"attributes":{
						"POSITION":0,
						"NORMAL":1,
						"TEXCOORD_0":2,
						"TANGENT":3
					},
					"indices":4,
					"material":0
				}
			]
		},
		{
			"name":"Cube.001",
			"primitives":[
				{
					"attributes":{
						"POSITION":5,
						"NORMAL":6,
						"TEXCOORD_0":7,
						"TANGENT":8
					},
					"indices":4,
					"material":0
				}
			]
		},
		{
			"name":"Cube.002",
			"primitives":[
				{
					"attributes":{
						"POSITION":9,
						"NORMAL":10,
						"TEXCOORD_0":11,
						"TANGENT":12
					},
					"indices":4,
					"material":0
				}
			]
		},
		{
			"name":"Cube.003",
			"primitives":[
				{
					"attributes":{
						"POSITION":13,
						"NORMAL":14,
						"TEXCOORD_0":15,
						"TANGENT":16
					},
					"indices":17
				}
			]
		},
		{
			"name":"Cube.004",
			"primitives":[
				{
					"attributes":{
						"POSITION":18,
						"NORMAL":19,
						"TEXCOORD_0":20,
						"TANGENT":21
					},
					"indices":17
				}
			]
		},
		{
			"name":"Cube.005",
			"primitives":[
				{
					"attributes":{
						"POSITION":22,
						"NORMAL":23,
						"TEXCOORD_0":24,
						"TANGENT":25
					},
					"indices":17
				}
			]
		},
		{
			"name":"Cube.007",
			"primitives":[
				{
					"attributes":{
						"POSITION":26,
						"NORMAL":27,
						"TEXCOORD_0":28,
						"TANGENT":29
					},
					"indices":17
				}
			]
		},
		{
			"name":"Cube.008",
			"primitives":[
				{
					"attributes":{
						"POSITION":30,
						"NORMAL":31,
						"TEXCOORD_0":32,
						"TANGENT":33
					},
					"indices":17
				}
			]
		},
		{
			"name":"Cube.009",
			"primitives":[
				{
					"attributes":{
						"POSITION":34,
						"NORMAL":35,
						"TEXCOORD_0":36,
						"TANGENT":37
					},
					"indices":17
				}
			]
		},
		{
			"name":"Icosphere",
			"primitives":[
				{
					"attributes":{
						"POSITION":38,
						"NORMAL":39,
						"TEXCOORD_0":40,
						"TANGENT":41
					},
					"indices":42
				}
			]
		},
		{
			"name":"Plane",
			"primitives":[
				{
					"attributes":{
						"POSITION":43,
						"NORMAL":44,
						"TEXCOORD_0":45,
						"TANGENT":46
					},
					"indices":47
				}
			]
		}
	],
	"accessors":[
		{
			"bufferView":0,
			"componentType":5126,
			"count":24,
			"max":[
				1,
				1,
				1
			],
			"min":[
				-1,
				-1,
				-1
			],
			"type":"VEC3"
		},
		{
			"bufferView":1,
			"componentType":5126,
			"count":24,
			"type":"VEC3"
		},
		{
			"bufferView":2,
			"componentType":5126,
			"count":24,
			"type":"VEC2"
		},
		{
			"bufferView":3,
			"componentType":5126,
			"count":24,
			"type":"VEC4"
		},
		{
			"bufferView":4,
			"componentType":5123,
			"count":36,
			"type":"SCALAR"
		},
		{
			"bufferView":5,
			"componentType":5126,
			"count":24,
			"max":[
				1,
				1,
				1
			],
			"min":[
				-1,
				-1,
				-1
			],
			"type":"VEC3"
		},
		{
			"bufferView":6,
			"componentType":5126,
			"count":24,
			"type":"VEC3"
		},
		{
			"bufferView":7,
			"componentType":5126,
			"count":24,
			"type":"VEC2"
		},
		{
			"bufferView":8,
			"componentType":5126,
			"count":24,
			"type":"VEC4"
		},
		{
			"bufferView":9,
			"componentType":5126,
			"count":24,
			"max":[
				1,
				1,
				1
			],
			"min":[
				-1,
				-1,
				-1
			],
			"type":"VEC3"
		},
		{
			"bufferView":10,
			"componentType":5126,
			"count":24,
			"type":"VEC3"
		},
		{
			"bufferView":11,
			"componentType":5126,
			"count":24,
			"type":"VEC2"
		},
		{
			"bufferView":12,
			"componentType":5126,
			"count":24,
			"type":"VEC4"
		},
		{
			"bufferView":13,
			"componentType":5126,
			"count":24,
			"max":[
				1,
				1,
				1
			],
			"min":[
				-1,
				-1,
				-1
			],
			"type":"VEC3"
		},
		{
			"bufferView":14,
			"componentType":5126,
			"count":24,
			"type":"VEC3"
		},
		{
			"bufferView":15,
			"componentType":5126,
			"count":24,
			"type":"VEC2"
		},
		{
			"bufferView":16,
			"componentType":5126,
			"count":24,
			"type":"VEC4"
		},
		{
			"bufferView":17,
			"componentType":5123,
			"count":36,
			"type":"SCALAR"
		},
		{
			"bufferView":18,
			"componentType":5126,
			"count":24,
			"max":[
				1,
				1,
				1
			],
			"min":[
				-1,
				-1,
				-1
			],
			"type":"VEC3"
		},
		{
			"bufferView":19,
			"componentType":5126,
			"count":24,
			"type":"VEC3"
		},
		{
			"bufferView":20,
			"componentType":5126,
			"count":24,
			"type":"VEC2"
		},
		{
			"bufferView":21,
			"componentType":5126,
			"count":24,
			"type":"VEC4"
		},
		{
			"bufferView":22,
			"componentType":5126,
			"count":24,
			"max":[
				1,
				1,
				1
			],
			"min":[
				-1,
				-1,
				-1
			],
			"type":"VEC3"
		},
		{
			"bufferView":23,
			"componentType":5126,
			"count":24,
			"type":"VEC3"
		},
		{
			"bufferView":24,
			"componentType":5126,
			"count":24,
			"type":"VEC2"
		},
		{
			"bufferView":25,
			"componentType":5126,
			"count":24,
			"type":"VEC4"
		},
		{
			"bufferView":26,
			"componentType":5126,
			"count":24,
			"max":[
				1,
				1,
				1
			],
			"min":[
				-1,
				-1,
				-1
			],
			"type":"VEC3"
		},
		{
			"bufferView":27,
			"componentType":5126,
			"count":24,
			"type":"VEC3"
		},
		{
			"bufferView":28,
			"componentType":5126,
			"count":24,
			"type":"VEC2"
		},
		{
			"bufferView":29,
			"componentType":5126,
			"count":24,
			"type":"VEC4"
		},
		{
			"bufferView":30,
			"componentType":5126,
			"count":24,
			"max":[
				1,
				1,
				1
			],
			"min":[
				-1,
				-1,
				-1
			],
			"type":"VEC3"
		},
		{
			"bufferView":31,
			"componentType":5126,
			"count":24,
			"type":"VEC3"
		},
		{
			"bufferView":32,
			"componentType":5126,
			"count":24,
			"type":"VEC2"
		},
		{
			"bufferView":33,
			"componentType":5126,
			"count":24,
			"type":"VEC4"
		},
		{
			"bufferView":34,
			"componentType":5126,
			"count":24,
			"max":[
				1,
				1,
				1
			],
			"min":[
				-1,
				-1,
				-1
			],
			"type":"VEC3"
		},
		{
			"bufferView":35,
			"componentType":5126,
			"count":24,
			"type":"VEC3"
		},
		{
			"bufferView":36,
			"componentType":5126,
			"count":24,
			"type":"VEC2"
		},
		{
			"bufferView":37,
			"componentType":5126,
			"count":24,
			"type":"VEC4"
		},
		{
			"bufferView":38,
			"componentType":5126,
			"count":285,
			"max":[
				0.9231224656105042,
				0.9303051233291626,
				0.9248635768890381
			],
			"min":[
				-0.9231224656105042,
				-0.9303051233291626,
				-0.9248635768890381
			],
			"type":"VEC3"
		},
		{
			"bufferView":39,
			"componentType":5126,
			"count":285,
			"type":"VEC3"
		},
		{
			"bufferView":40,
			"componentType":5126,
			"count":285,
			"type":"VEC2"
		},
		{
			"bufferView":41,
			"componentType":5126,
			"count":285,
			"type":"VEC4"
		},
		{
			"bufferView":42,
			"componentType":5123,
			"count":1440,
			"type":"SCALAR"
		},
		{
			"bufferView":43,
			"componentType":5126,
			"count":4,
			"max":[
				1,
				0,
				1
			],
			"min":[
				-1,
				0,
				-1
			],
			"type":"VEC3"
		},
		{
			"bufferView":44,
			"componentType":5126,
			"count":4,
			"type":"VEC3"
		},
		{
			"bufferView":45,
			"componentType":5126,
			"count":4,
			"type":"VEC2"
		},
		{
			"bufferView":46,
			"componentType":5126,
			"count":4,
			"type":"VEC4"
		},
		{
			"bufferView":47,
			"componentType":5123,
			"count":6,
			"type":"SCALAR"
		}
	],
	"bufferViews":[
		{
			"buffer":0,
			"byteLength":288,
			"byteOffset":0,
			"target":34962
		},
		{
			"buffer":0,
			"byteLength":288,
			"byteOffset":288,
			"target":34962
		},
		{
			"buffer":0,
			"byteLength":192,
			"byteOffset":576,
			"target":34962
		},
		{
			"buffer":0,
			"byteLength":384,
			"byteOffset":768,
			"target":34962
		},
		{
			"buffer":0,
			"byteLength":72,
			"byteOffset":1152,
			"target":34963
		},
		{
			"buffer":0,
			"byteLength":288,
			"byteOffset":1224,
			"target":34962
		},
		{
			"buffer":0,
			"byteLength":288,
			"byteOffset":1512,
			"target":34962
		},
		{
			"buffer":0,
			"byteLength":192,
			"byteOffset":1800,
			"target":34962
		},
		{
			"buffer":0,
			"byteLength":384,
			"byteOffset":1992,
			"target":34962
		},
		{
			"buffer":0,
			"byteLength":288,
			"byteOffset":2376,
			"target":34962
		},
		{
			"buffer":0,
			"byteLength":288,
			"byteOffset":2664,
			"target":34962
		},
		{
			"buffer":0,
			"byteLength":192,
			"byteOffset":2952,
			"target":34962
		},
		{
			"buffer":0,
			"byteLength":384,
			"byteOffset":3144,
			"target":34962
		},
		{
			"buffer":0,
			"byteLength":288,
			"byteOffset":3528,
			"target":34962
		},
		{
			"buffer":0,
			"byteLength":288,
			"byteOffset":3816,
			"target":34962
		},
		{
			"buffer":0,
			"byteLength":192,
			"byteOffset":4104,
			"target":34962
		},
		{
			"buffer":0,
			"byteLength":384,
			"byteOffset":4296,
			"target":34962
		},
		{
			"buffer":0,
			"byteLength":72,
			"byteOffset":4680,
			"target":34963
		},
		{
			"buffer":0,
			"byteLength":288,
			"byteOffset":4752,
			"target":34962
		},
		{
			"buffer":0,
			"byteLength":288,
			"byteOffset":5040,
			"target":34962
		},
		{
			"buffer":0,
			"byteLength":192,
			"byteOffset":5328,
			"target":34962
		},
		{
			"buffer":0,
			"byteLength":384,
			"byteOffset":5520,
			"target":34962
		},
		{
			"buffer":0,
			"byteLength":288,
			"byteOffset":5904,
			"target":34962
		},
		{
			"buffer":0,
			"byteLength":288,
			"byteOffset":6192,
			"target":34962
		},
		{
			"buffer":0,
			"byteLength":192,
			"byteOffset":6480,
			"target":34962
		},
		{
			"buffer":0,
			"byteLength":384,
			"byteOffset":6672,
			"target":34962
		},
		{
			"buffer":0,
			"byteLength":288,
			"byteOffset":7056,
			"target":34962
		},
		{
			"buffer":0,
			"byteLength":288,
			"byteOffset":7344,
			"target":34962
		},
		{
			"buffer":0,
			"byteLength":192,
			"byteOffset":7632,
			"target":34962
		},
		{
			"buffer":0,
			"byteLength":384,
			"byteOffset":7824,
			"target":34962
		},
		{
			"buffer":0,
			"byteLength":288,
			"byteOffset":8208,
			"target":34962
		},
		{
			"buffer":0,
			"byteLength":288,
			"byteOffset":8496,
			"target":34962
		},
		{
			"buffer":0,
			"byteLength":192,
			"byteOffset":8784,
			"target":34962
		},
		{
			"buffer":0,
			"byteLength":384,
			"byteOffset":8976,
			"target":34962
		},
		{
			"buffer":0,
			"byteLength":288,
			"byteOffset":9360,
			"target":34962
		},
		{
			"buffer":0,
			"byteLength":288,
			"byteOffset":9648,
			"target":34962
		},
		{
			"buffer":0,
			"byteLength":192,
			"byteOffset":9936,
			"target":34962
		},
		{
			"buffer":0,
			"byteLength":384,
			"byteOffset":10128,
			"target":34962
		},
		{
			"buffer":0,
			"byteLength":3420,
			"byteOffset":10512,
			"target":34962
		},
		{
			"buffer":0,
			"byteLength":3420,
			"byteOffset":13932,
			"target":34962
		},
		{
			"buffer":0,
			"byteLength":2280,
			"byteOffset":17352,
			"target":34962
		},
		{
			"buffer":0,
			"byteLength":4560,
			"byteOffset":19632,
			"target":34962
		},
		{
			"buffer":0,
			"byteLength":2880,
			"byteOffset":24192,
			"target":34963
		},
		{
			"buffer":0,
			"byteLength":48,
			"byteOffset":27072,
			"target":34962
		},
		{
			"buffer":0,
			"byteLength":48,
			"byteOffset":27120,
			"target":34962
		},
		{
			"buffer":0,
			"byteLength":32,
			"byteOffset":27168,
			"target":34962
		},
		{
			"buffer":0,
			"byteLength":64,
			"byteOffset":27200,
			"target":34962
		},
		{
			"buffer":0,
			"byteLength":12,
			"byteOffset":27264,
			"target":34963
		}
	],
	"buffers":[
		{
			"byteLength":27276,
			"uri":"LightingtestModel-335b37a5e408c1ade49e124e894a69d7.bin"
		}
	]
}
